<svg xmlns="http://www.w3.org/2000/svg" viewBox="0 0 1000 1000"><defs><style>.move{animation:move 8s linear infinite;}.pulse{animation:pulse 2.5s ease-in-out infinite;}.blink{animation:blink 4s infinite;}@keyframes move{from{transform:translateX(0)}to{transform:translateX(80px)}}@keyframes pulse{0%,100%{opacity:.45}50%{opacity:1}}@keyframes blink{0%,45%,55%,100%{transform:scaleY(1)}50%{transform:scaleY(.08)}}</style></defs><rect width="1000" height="1000" fill="#E9DDFF"/><g class="pulse" opacity=".5"><circle cx="120" cy="150" r="42" fill="#FFFFFF"/><circle cx="860" cy="180" r="28" fill="#FFFFFF"/><circle cx="820" cy="800" r="55" fill="#FFFFFF"/></g><g class="move" opacity=".18"><path d="M0 0 L180 180 M180 0 L360 180 M360 0 L540 180 M540 0 L720 180 M720 0 L900 180" stroke="#FFFFFF" stroke-width="45"/></g><g transform="translate(0 0)"><animateTransform attributeName="transform" type="translate" values="0 0;0 -8;0 0;0 6;0 0" dur="4s" repeatCount="indefinite"/><ellipse cx="500" cy="820" rx="260" ry="45" fill="#000000" opacity=".12"/><path d="M245 610 C245 470 350 360 500 360 C650 360 755 470 755 610 C755 735 650 800 500 800 C350 800 245 735 245 610Z" fill="#20B2AA" stroke="#111" stroke-width="14"/><g class="blink"><ellipse cx="410" cy="540" rx="42" ry="28" fill="#111"/><ellipse cx="590" cy="540" rx="42" ry="28" fill="#111"/></g><path d="M445 655 Q500 690 555 655" fill="none" stroke="#111" stroke-width="14" stroke-linecap="round"/><path d="M500 230 L555 350 L500 385 L445 350Z" fill="#FFFFFF" stroke="#111" stroke-width="14"/><circle class="pulse" cx="735" cy="470" r="28" fill="#FFFFFF"/></g><rect x="28" y="28" width="944" height="944" rx="55" fill="none" stroke="#111111" stroke-width="12"/><text x="500" y="925" text-anchor="middle" font-family="Arial,sans-serif" font-size="34" font-weight="700" fill="#111111">CHROMIQ #13</text></svg>