<svg xmlns="http://www.w3.org/2000/svg" viewBox="0 0 1000 1000"><defs><style>.move{animation:move 8s linear infinite;}.pulse{animation:pulse 2.5s ease-in-out infinite;}.blink{animation:blink 4s infinite;}@keyframes move{from{transform:translateX(0)}to{transform:translateX(80px)}}@keyframes pulse{0%,100%{opacity:.45}50%{opacity:1}}@keyframes blink{0%,45%,55%,100%{transform:scaleY(1)}50%{transform:scaleY(.08)}}</style></defs><rect width="1000" height="1000" fill="#D5FAF4"/><g class="pulse" opacity=".5"><circle cx="120" cy="150" r="42" fill="#FFE135"/><circle cx="860" cy="180" r="28" fill="#FFE135"/><circle cx="820" cy="800" r="55" fill="#FFE135"/></g><g class="move" opacity=".18"><path d="M100 700 Q300 300 500 700 T900 700" fill="none" stroke="#FFE135" stroke-width="40"/></g><g transform="translate(0 0)"><animateTransform attributeName="transform" type="translate" values="0 0;0 -8;0 0;0 6;0 0" dur="4s" repeatCount="indefinite"/><ellipse cx="500" cy="820" rx="260" ry="45" fill="#000000" opacity=".12"/><path d="M245 610 C245 470 350 360 500 360 C650 360 755 470 755 610 C755 735 650 800 500 800 C350 800 245 735 245 610Z" fill="#FF7EB6" stroke="#111" stroke-width="14"/><g class="blink"><rect x="375" y="510" width="70" height="60" rx="15" fill="#111"/><rect x="555" y="510" width="70" height="60" rx="15" fill="#111"/></g><path d="M420 640 Q500 710 580 640" fill="none" stroke="#111" stroke-width="18" stroke-linecap="round"/><path d="M410 390 Q430 285 500 250 Q570 285 590 390Z" fill="#7C3AED" stroke="#111" stroke-width="14"/><circle class="pulse" cx="735" cy="470" r="28" fill="#FFE135"/></g><rect x="28" y="28" width="944" height="944" rx="55" fill="none" stroke="#111111" stroke-width="12"/><text x="500" y="925" text-anchor="middle" font-family="Arial,sans-serif" font-size="34" font-weight="700" fill="#111111">CHROMIQ #8</text></svg>