<svg xmlns="http://www.w3.org/2000/svg" viewBox="0 0 1000 1000"><defs><style>.move{animation:move 8s linear infinite;}.pulse{animation:pulse 2.5s ease-in-out infinite;}.blink{animation:blink 4s infinite;}@keyframes move{from{transform:translateX(0)}to{transform:translateX(80px)}}@keyframes pulse{0%,100%{opacity:.45}50%{opacity:1}}@keyframes blink{0%,45%,55%,100%{transform:scaleY(1)}50%{transform:scaleY(.08)}}</style></defs><rect width="1000" height="1000" fill="#FFE0E8"/><g class="pulse" opacity=".5"><circle cx="120" cy="150" r="42" fill="#111111"/><circle cx="860" cy="180" r="28" fill="#111111"/><circle cx="820" cy="800" r="55" fill="#111111"/></g><g class="move" opacity=".18"><path d="M500 120 L580 300 L780 330 L620 470 L670 670 L500 570 L330 670 L380 470 L220 330 L420 300Z" fill="none" stroke="#111111" stroke-width="28"/></g><g transform="translate(0 0)"><animateTransform attributeName="transform" type="translate" values="0 0;0 -8;0 0;0 6;0 0" dur="4s" repeatCount="indefinite"/><ellipse cx="500" cy="820" rx="260" ry="45" fill="#000000" opacity=".12"/><path d="M245 610 C245 470 350 360 500 360 C650 360 755 470 755 610 C755 735 650 800 500 800 C350 800 245 735 245 610Z" fill="#FFF176" stroke="#111" stroke-width="14"/><g class="blink"><ellipse cx="410" cy="540" rx="42" ry="28" fill="#111"/><ellipse cx="590" cy="540" rx="42" ry="28" fill="#111"/></g><path d="M420 675 Q500 615 580 675" fill="none" stroke="#111" stroke-width="18" stroke-linecap="round"/><circle cx="500" cy="315" r="55" fill="#111111" stroke="#111" stroke-width="12"/><circle cx="500" cy="315" r="20" fill="#fff"/><circle class="pulse" cx="735" cy="470" r="28" fill="#111111"/></g><rect x="28" y="28" width="944" height="944" rx="55" fill="none" stroke="#111111" stroke-width="12"/><text x="500" y="925" text-anchor="middle" font-family="Arial,sans-serif" font-size="34" font-weight="700" fill="#111111">CHROMIQ #9</text></svg>